<svg width="21" height="23" viewBox="0 0 21 23" fill="none" xmlns="http://www.w3.org/2000/svg">
<path d="M14.8999 0.5H6.10018C2.73652 0.5 0 3.36683 0 6.89066V16.1093C0 19.6332 2.73652 22.5 6.10018 22.5H14.8998C18.2635 22.5 21 19.6332 21 16.1094V6.89066C21 3.36683 18.2635 0.5 14.8999 0.5ZM19.3593 16.1093C19.3593 18.6854 17.3588 20.7812 14.8999 20.7812H6.10018C3.64116 20.7812 1.64062 18.6854 1.64062 16.1094V6.89066C1.64062 4.31455 3.64116 2.21875 6.10018 2.21875H14.8998C17.3588 2.21875 19.3593 4.31455 19.3593 6.89066V16.1093Z" fill="black"/>
<path d="M10.5 5.57031C7.37896 5.57031 4.83984 8.23034 4.83984 11.5C4.83984 14.7697 7.37896 17.4297 10.5 17.4297C13.6211 17.4297 16.1602 14.7697 16.1602 11.5C16.1602 8.23034 13.6211 5.57031 10.5 5.57031ZM10.5 15.7109C8.28364 15.7109 6.48047 13.8219 6.48047 11.5C6.48047 9.1781 8.28364 7.28906 10.5 7.28906C12.7164 7.28906 14.5195 9.1781 14.5195 11.5C14.5195 13.8219 12.7164 15.7109 10.5 15.7109Z" fill="black"/>
<path d="M16.2422 6.34375C16.6952 6.34375 17.0625 5.95899 17.0625 5.48438C17.0625 5.00976 16.6952 4.625 16.2422 4.625C15.7891 4.625 15.4218 5.00976 15.4218 5.48438C15.4218 5.95899 15.7891 6.34375 16.2422 6.34375Z" fill="black"/>
</svg>
